<svg xmlns="http://www.w3.org/2000/svg" viewBox="0 0 62.65 62.65"><defs><style>.cls-1{fill:#404852;}.cls-2{fill:#f8f8f8;}</style></defs><title>ilt</title><g id="Capa_2" data-name="Capa 2"><g id="Capa_3" data-name="Capa 3"><path class="cls-1" d="M62.65,31.32A31.33,31.33,0,1,1,31.33,0,31.33,31.33,0,0,1,62.65,31.32"/><path class="cls-2" d="M20.65,16.52c-1.06,3-2,5.77-3,8.44-3,.15-3.78-1.57-3.75-4.08L12.58,29.5c-1.75-.19-2.76-.74-2.8-2.16a50.8,50.8,0,0,1,.08-6.53,4.29,4.29,0,0,1,4.36-4.26c2-.16,4.08,0,6.43,0"/><path class="cls-2" d="M23.3,11.24a3.9,3.9,0,0,1-3.9,3.93,4,4,0,0,1-3.87-4,4,4,0,0,1,3.83-3.85,4,4,0,0,1,3.94,3.9"/><path class="cls-2" d="M18.19,31.43c.34-1,.69-2.07,1-3.11l.54-.16c.25.69.86,1.48.68,2-.22.69-1.07,1.18-1.65,1.76Z"/><path class="cls-2" d="M15.7,55.31c-.45-1-1.27-1.94-1.29-2.93-.12-6.24-.06-12.49-.06-18.74a6.26,6.26,0,0,1,.16-.91c.65.18,1.23.31,1.79.49,3,1,5,.4,5.95-1.74s.18-3.85-2.61-5.72c1-2.84,2-5.76,3.06-8.66a1.36,1.36,0,0,1,1-.61c2.53-.32,5,1.25,5.13,3.78.3,4.91.29,9.85.2,14.78,0,.61-1.27,1.2-2,1.8-.57-.7-1.6-1.38-1.64-2.11-.19-4-.14-8-.19-12,0-.66-.06-1.32-.1-2l-.52,0a19.54,19.54,0,0,0-.2,2c0,9.62.08,19.24,0,28.86,0,1.24-.81,2.46-1.23,3.7H21.32C20.85,54.1,20,52.9,20,51.68c-.16-5-.06-10.08-.08-15.12a10.16,10.16,0,0,0-.28-1.71l-.54.07c0,.66-.09,1.32-.09,2,0,4.92.08,9.84-.07,14.75,0,1.23-.86,2.43-1.33,3.65Z"/><path class="cls-2" d="M48.2,36.13a8.73,8.73,0,0,1-2.06-1.07c-1.2-1.08-2.26-2.31-3.57-3.68-.68,1.66-1.2,3.12-1.87,4.51a6.52,6.52,0,0,1-1.32,1.42,5.83,5.83,0,0,1-.93-1.65c-.3-1.78-.44-3.58-.67-5.63-1.58.86-3,1.68-4.4,2.37a4.62,4.62,0,0,1-1.6.15,4.69,4.69,0,0,1,0-1.63c.71-1.84,1.52-3.64,2.34-5.56l-1.6-.88.78-1.55a10.37,10.37,0,0,1,2.57.87c.33.21.42,1.17.26,1.67-.39,1.26-1,2.45-1.72,4.16,1.34-.73,2.22-1.22,3.12-1.68,1.39-.71,1.85-.45,2.08,1.12a9,9,0,0,0,.63,2.63c.23-.49.48-1,.68-1.46.79-1.94,1.25-2,2.78-.47.24.24.52.45,1.15,1-.35-1.1-.54-1.79-.79-2.45-.45-1.16-.08-1.78,1.15-1.94.92-.12,1.83-.29,3.31-.52-1.23-.64-2-1.06-2.79-1.43-2.15-1-2.21-1.55-.33-2.93A13.59,13.59,0,0,0,48.14,19c-1.43.07-2.86.14-4.29.19-2,.08-2.27-.29-1.64-2.23l.91-2.78c-1.1.72-1.83,1.11-2.47,1.63-1.31,1-2.19.73-2.85-.73a15.22,15.22,0,0,0-1-1.6c-.09,1.2.21,2.65-.36,3.16s-2,.28-3.3.38a13.72,13.72,0,0,1,1.24,1.32c.36.48,1,1.17.81,1.53s-1,.8-1.21,1c-1.44-1.44-2.7-2.61-3.84-3.89a10.11,10.11,0,0,1-1.09-2,10.38,10.38,0,0,1,2.1-.36c1.16,0,2.3.26,3.65.43-.24-2.07-.51-4-.63-5.86,0-.53.37-1.08.57-1.62.48.32,1.14.54,1.42,1,1.15,1.81,2.19,3.69,3.34,5.68,1.49-1,2.81-2,4.2-2.8a5.55,5.55,0,0,1,1.72-.4,5.36,5.36,0,0,1,.15,1.76c-.38,1.45-.91,2.86-1.44,4.48,2.4-.12,4.61-.28,6.82-.3a6.91,6.91,0,0,1,2,.64,6.86,6.86,0,0,1-1.11,1.58c-1.55,1.22-3.18,2.33-5,3.63,1.74.85,3.27,1.54,4.74,2.34.46.25.75.8,1.11,1.21-.47.34-.91.87-1.43,1-1.64.36-3.32.56-5.12.84.84,2.54,1.64,4.94,2.43,7.35Z"/></g></g></svg>